<svg xmlns="http://www.w3.org/2000/svg" width="64" height="66" viewBox="0 0 64 66"><path fill="#ff9311" d="M63.02 14.63l-7.9-6.81L47.22 1 39.3 7.82l-7.9 6.81h8.65C37.14 32.33 20.62 46.1 1.8 43.17c-.83-.13-1.16.98-.35 1.26 23.4 8.05 50.37-5.19 54.27-29.8zM45.49 37.5a41.83 41.83 0 0 1-8.09 5.78v21.98h8.09zM25.26 65.26h8.1V45.24a44.5 44.5 0 0 1-8.1 2.54zm24.28 0h8.09V16.64h-.2a38.39 38.39 0 0 1-7.9 16.56zM9.08 48.31A45.28 45.28 0 0 1 1 46.38v18.88h8.1zm4.05 16.95h8.09V48.45a47.08 47.08 0 0 1-8.1.26z"/></svg>